<svg xmlns="http://www.w3.org/2000/svg" width="1024" height="1024" viewBox="0 0 1024 1024" version="1.1"><path d="M 455.400 291.765 C 451.350 294.469, 449.298 312.594, 450.938 331.153 C 451.854 341.506, 451.824 344.523, 450.790 346.396 C 445.513 355.949, 443.414 360.365, 440.417 368.218 C 438.535 373.149, 435.366 380.096, 433.375 383.657 C 430.387 388.999, 429.847 390.822, 430.284 394.081 C 431.556 403.564, 438.965 412.905, 452.067 421.544 C 462.205 428.229, 466.577 432.465, 467.618 436.614 C 468.922 441.810, 467.248 450.762, 462.590 463.500 C 455.903 481.789, 453.166 492.675, 451.812 506.381 C 450.158 523.111, 451.407 530.551, 459.562 552.555 C 471.799 585.571, 474.394 599.324, 474.457 631.500 C 474.509 657.865, 473.613 662.137, 466.440 669.720 C 461.224 675.235, 460.111 678.338, 462.096 681.834 C 467.303 691.003, 485.087 691.360, 492.908 682.452 C 497.061 677.721, 499.261 669.837, 505.011 639.072 C 507.742 624.458, 510.914 609.125, 512.059 605 C 514.537 596.077, 520.388 583.267, 525.511 575.549 C 530.741 567.670, 542.229 555.652, 549.466 550.487 C 555.398 546.254, 561 543.414, 561 544.640 C 561 544.964, 557.430 549.002, 553.066 553.612 C 533.554 574.225, 524 596.004, 524 619.870 C 524 642.321, 531.167 657.936, 546.025 667.858 L 552.228 672 547.163 672 C 539.541 672, 532.808 673.763, 526.877 677.310 C 520.150 681.334, 518.342 685.239, 521.881 688.105 C 524.026 689.842, 526.115 689.999, 546.861 689.984 C 571.640 689.967, 589.138 688.832, 600.204 686.525 C 604.143 685.703, 607.538 685.205, 607.750 685.417 C 607.962 685.629, 605.293 687.819, 601.818 690.283 C 578.766 706.633, 549.940 713.346, 512.911 710.989 C 477.929 708.761, 457.041 697.945, 441.477 674 C 433.938 662.402, 430.920 659.325, 425.707 657.921 C 418.612 656.011, 408.919 659.050, 403.909 664.757 C 400.965 668.110, 400.813 668.680, 401.172 675.031 C 401.972 689.198, 414.587 707.345, 431 717.940 C 470.422 743.387, 539.887 750.376, 590.147 733.952 C 612.175 726.754, 627.859 717.279, 643 702.024 C 654.205 690.735, 660.328 681.713, 666.491 667.407 C 683.146 628.752, 679.688 570.348, 658.095 525.607 C 644.852 498.167, 628.996 482.443, 597.326 465.345 C 578 454.911, 569.994 444.408, 569.241 428.500 C 568.928 421.898, 569.330 419.015, 571.544 412 C 573.975 404.292, 574.302 401.356, 575.045 380.500 C 575.496 367.850, 576.557 352.100, 577.402 345.500 C 580.891 318.241, 578.226 299.904, 570.902 300.774 C 568.187 301.097, 549.792 312.838, 538.826 321.247 C 529.936 328.065, 527.773 328.831, 520.124 327.873 C 517.031 327.486, 511.396 327.131, 507.602 327.084 L 500.703 327 484.102 310.726 C 465.758 292.745, 459.814 288.818, 455.400 291.765 M 762.707 623.473 C 761.309 624.495, 761.326 624.722, 762.873 625.688 C 764.132 626.475, 765.391 626.415, 767.548 625.464 C 770.256 624.270, 770.309 624.156, 768.191 624.081 C 766.921 624.037, 766.114 623.625, 766.397 623.167 C 767.158 621.935, 764.509 622.155, 762.707 623.473 M 763.648 637.515 C 761.604 639.010, 762.220 641, 764.726 641 C 765.610 641, 765.996 641.337, 765.583 641.750 C 765.171 642.163, 764.421 642.500, 763.917 642.500 C 762.658 642.500, 762.612 644.371, 763.861 644.787 C 764.416 644.972, 765.534 643.858, 766.345 642.312 C 767.155 640.765, 768.084 639.612, 768.409 639.750 C 768.734 639.888, 769 639.775, 769 639.500 C 769 639.225, 769 638.518, 769 637.929 C 769 637.339, 768.293 637.564, 767.429 638.429 C 766.564 639.293, 765.439 640, 764.929 640 C 763.554 640, 763.802 638.237, 765.250 637.720 C 765.938 637.475, 766.274 637.024, 765.998 636.719 C 765.723 636.413, 764.665 636.772, 763.648 637.515 M 253 648.544 C 253 650.845, 255.490 651.968, 258.560 651.050 L 261.500 650.172 258.281 650.086 C 256.032 650.026, 255.217 649.598, 255.574 648.667 C 255.865 647.911, 255.418 647.333, 254.543 647.333 C 253.694 647.333, 253 647.878, 253 648.544 M 242.382 672.552 C 242.709 673.406, 242.563 673.848, 242.058 673.536 C 241.552 673.223, 240.851 673.432, 240.500 674 C 240.149 674.568, 239.373 674.731, 238.776 674.362 C 238.133 673.964, 237.978 674.156, 238.396 674.832 C 238.784 675.459, 240.091 675.787, 241.300 675.560 C 242.510 675.334, 244.078 675.115, 244.785 675.074 C 245.759 675.018, 245.811 674.515, 245 673 C 243.746 670.657, 241.508 670.274, 242.382 672.552 M 762.297 678.750 C 761.308 680.200, 760.942 680.263, 760.159 679.115 C 759.392 677.990, 759.012 678.109, 758.134 679.750 C 757.539 680.861, 755.916 682.055, 754.526 682.404 C 753.137 682.753, 752 683.506, 752 684.078 C 752 684.650, 752.418 684.860, 752.929 684.544 C 753.439 684.229, 754.052 684.765, 754.291 685.735 C 754.529 686.706, 754.619 686.461, 754.490 685.192 C 754.343 683.747, 754.701 683.055, 755.449 683.342 C 756.106 683.594, 757.154 682.982, 757.779 681.983 C 758.481 680.859, 759.651 680.357, 760.844 680.669 C 761.906 680.947, 763.077 680.685, 763.446 680.087 C 763.816 679.489, 765.018 679, 766.118 679 C 767.218 679, 767.840 678.550, 767.500 678 C 766.521 676.415, 763.602 676.836, 762.297 678.750 M 740.502 687.996 C 739.840 689.069, 738.949 693, 739.369 693 C 739.509 693, 740.622 691.650, 741.842 690 C 743.544 687.698, 743.717 687, 742.589 687 C 741.780 687, 740.841 687.448, 740.502 687.996 M 747.500 691.068 C 745.761 691.756, 745.859 691.869, 748.250 691.930 C 749.997 691.974, 751 692.547, 751 693.500 C 751 694.325, 751.408 695, 751.906 695 C 753.165 695, 752.065 691.236, 750.651 690.708 C 750.018 690.471, 748.600 690.633, 747.500 691.068 M 257.128 713.692 C 258.060 714.842, 258.099 715.143, 257.250 714.633 C 256.535 714.204, 256 714.381, 256 715.048 C 256 715.700, 256.697 715.947, 257.582 715.607 C 258.452 715.273, 259.577 715, 260.082 715 C 260.587 715, 261 714.523, 261 713.941 C 261 713.359, 260.550 713.160, 260 713.500 C 259.450 713.840, 259 713.641, 259 713.059 C 259 712.477, 258.270 712, 257.378 712 C 255.979 712, 255.945 712.234, 257.128 713.692 M 734 717.997 C 734 718.546, 732.538 719.677, 730.750 720.512 C 728.962 721.346, 728.288 721.812, 729.250 721.546 C 731.081 721.040, 731.526 721.932, 730.250 723.552 C 729.837 724.075, 730.400 723.598, 731.500 722.490 C 735.074 718.892, 736.323 717, 735.122 717 C 734.505 717, 734 717.449, 734 717.997 M 322.341 768.675 C 322.712 769.046, 321.775 770.168, 320.258 771.168 C 318.741 772.168, 318.036 772.990, 318.691 772.993 C 319.346 772.997, 320.174 772.528, 320.530 771.951 C 320.966 771.246, 321.703 771.328, 322.781 772.201 C 323.807 773.032, 324.129 773.075, 323.676 772.319 C 323.286 771.670, 323.432 770.851, 324 770.500 C 325.220 769.746, 324.364 768, 322.774 768 C 322.165 768, 321.970 768.304, 322.341 768.675 M 331.484 768.908 C 332.125 769.996, 331.811 770.184, 330.099 769.736 C 328.691 769.368, 328.023 769.569, 328.262 770.287 C 328.801 771.902, 336 772.473, 336 770.901 C 336 770.222, 335.699 769.968, 335.331 770.336 C 334.963 770.703, 333.761 770.216, 332.659 769.252 C 331.472 768.213, 330.993 768.073, 331.484 768.908 M 329.001 773.821 C 328.999 774.708, 332.024 776.998, 333.179 776.985 C 334.166 776.973, 334.121 776.698, 333 775.898 C 331.795 775.037, 331.942 774.923, 333.750 775.320 C 335.097 775.615, 336 775.336, 336 774.625 C 336 773.929, 334.553 773.451, 332.501 773.469 C 330.576 773.486, 329.001 773.645, 329.001 773.821 M 302 775.030 C 305.007 775.957, 314.586 776.253, 313.726 775.393 C 313.392 775.058, 310.054 774.667, 306.309 774.522 C 301.995 774.356, 300.416 774.542, 302 775.030 M 346.786 774.846 C 347.653 775.397, 346.728 776.065, 343.938 776.900 C 341.665 777.581, 339.549 777.882, 339.236 777.569 C 338.923 777.256, 339.192 777, 339.833 777 C 340.475 777, 341 776.513, 341 775.917 C 341 775.321, 340.438 775.021, 339.750 775.250 C 339.063 775.479, 338.500 776.304, 338.500 777.083 C 338.500 779.343, 346.821 779.202, 348.042 776.922 C 349.375 774.432, 349.256 773.998, 347.250 774.015 C 345.961 774.027, 345.839 774.245, 346.786 774.846 M 352.215 776.500 C 352.608 776.920, 352.480 778.104, 351.930 779.131 C 350.974 780.916, 351.683 781.524, 354.250 781.118 C 354.663 781.053, 355.007 781.563, 355.015 782.250 C 355.026 783.083, 355.354 783, 356 782 C 356.828 780.718, 356.972 780.754, 356.985 782.250 C 356.997 783.604, 356.163 784, 353.300 784 C 350.789 784, 349.927 784.327, 350.618 785.018 C 351.309 785.709, 353.543 785.575, 357.568 784.601 C 360.831 783.812, 362.600 783.076, 361.500 782.965 C 360.400 782.854, 359.163 782.816, 358.750 782.882 C 358.337 782.947, 358 782.510, 358 781.912 C 358 781.215, 359.348 781.039, 361.750 781.423 C 363.895 781.765, 366.142 781.548, 367 780.916 C 368.273 779.979, 368.235 779.897, 366.750 780.374 C 365.736 780.701, 364.994 780.425, 364.985 779.719 C 364.974 778.830, 364.745 778.854, 364.140 779.808 C 363.320 781.100, 360.545 780.301, 353.500 776.747 C 352.400 776.192, 351.822 776.081, 352.215 776.500 M 346.250 784.698 C 344.397 785.392, 344.735 786.990, 346.750 787.063 C 348.091 787.112, 347.974 787.338, 346.250 788.031 C 345.012 788.529, 344 789.250, 344 789.634 C 344 790.019, 344.279 790.055, 344.619 789.714 C 344.960 789.374, 345.896 789.753, 346.700 790.557 C 348.259 792.117, 350.010 791.655, 349.985 789.691 C 349.975 788.958, 349.561 789.077, 348.909 790 C 347.966 791.333, 347.896 791.333, 348.281 790 C 348.520 789.175, 349.502 788.571, 350.464 788.657 C 351.874 788.783, 351.959 788.589, 350.902 787.657 C 350.181 787.020, 349.121 785.989, 348.546 785.365 C 347.971 784.741, 346.938 784.441, 346.250 784.698 M 334 789.505 C 334 789.792, 334.563 790.935, 335.250 792.044 C 336.257 793.668, 336.247 794.218, 335.203 794.869 C 333.553 795.896, 335.309 797.472, 339 798.277 C 340.375 798.577, 342.625 799.133, 344 799.513 C 345.375 799.892, 347.850 800.385, 349.500 800.609 C 351.968 800.943, 352.146 800.849, 350.500 800.078 C 349.133 799.437, 348.975 799.118, 350 799.070 C 350.953 799.026, 351.500 797.997, 351.500 796.250 C 351.500 793.739, 351.174 793.500, 347.750 793.500 C 344.846 793.500, 344 793.895, 344 795.250 C 344 797.125, 346.477 797.656, 347.500 796 C 347.840 795.450, 348.541 795, 349.059 795 C 349.577 795, 350 795.450, 350 796 C 350 796.550, 349.325 797, 348.500 797 C 347.675 797, 347 797.422, 347 797.938 C 347 798.454, 346.131 798.810, 345.069 798.730 C 344.007 798.650, 343.340 798.259, 343.586 797.862 C 343.831 797.464, 343.575 796.856, 343.016 796.510 C 342.457 796.165, 342 796.374, 342 796.976 C 342 797.694, 341.399 797.761, 340.250 797.170 C 339.288 796.675, 337.938 796.472, 337.250 796.718 C 336.563 796.965, 336 796.679, 336 796.083 C 336 795.487, 336.788 794.993, 337.750 794.985 C 339.134 794.973, 339.212 794.787, 338.122 794.096 C 337.364 793.616, 336.997 792.813, 337.307 792.312 C 337.617 791.811, 337 790.856, 335.935 790.192 C 334.871 789.527, 334 789.218, 334 789.505 M 376.257 799.763 C 376.352 801.028, 377.094 802.007, 377.963 802.015 C 379.218 802.028, 379.249 802.190, 378.130 802.899 C 377.196 803.490, 378.108 803.896, 380.993 804.171 C 383.834 804.442, 385.389 804.151, 385.720 803.287 C 385.992 802.579, 387.291 802, 388.607 802 C 391.297 802, 391.817 800.527, 389.448 799.618 C 388.434 799.229, 388.144 799.425, 388.612 800.181 C 389.104 800.977, 388.753 801.119, 387.494 800.636 C 386.485 800.249, 385.376 800.392, 385.028 800.954 C 384.327 802.089, 378.012 800.217, 376.794 798.513 C 376.406 797.970, 376.164 798.532, 376.257 799.763 M 367.754 802.169 C 368.018 803.176, 368.657 804, 369.176 804 C 369.694 804, 369.803 803.490, 369.417 802.866 C 368.931 802.079, 369.688 801.874, 371.889 802.197 C 373.983 802.504, 374.726 802.326, 374.073 801.673 C 373.529 801.129, 371.777 800.606, 370.180 800.511 C 367.818 800.370, 367.365 800.680, 367.754 802.169 M 418.750 800.778 C 414.272 801.355, 415.618 803, 420.567 803 C 424.680 803, 425.072 803.199, 424.500 805 C 424.050 806.419, 424.320 807, 425.433 807 C 427.272 807, 427.356 806.533, 425.977 803.957 C 424.630 801.441, 422.134 800.342, 418.750 800.778 M 415.416 806.095 C 417.199 807.203, 417.214 807.370, 415.636 808.524 C 414.155 809.607, 414.134 809.837, 415.471 810.350 C 416.312 810.673, 417 810.532, 417 810.036 C 417 809.540, 417.973 808.826, 419.163 808.448 C 421.560 807.687, 420.583 806.799, 416 805.573 C 413.754 804.973, 413.695 805.026, 415.416 806.095 M 532.438 806.101 C 532.054 806.722, 530.519 806.954, 528.917 806.633 C 527.356 806.321, 525.812 806.496, 525.487 807.021 C 525.162 807.547, 525.562 807.722, 526.375 807.410 C 527.395 807.018, 527.766 807.410, 527.571 808.671 C 527.415 809.677, 527.480 809.938, 527.717 809.250 C 527.983 808.475, 530.040 808, 533.132 808 C 535.874 808, 537.866 807.592, 537.558 807.094 C 537.250 806.596, 536.028 806.441, 534.843 806.751 C 533.366 807.138, 532.913 806.951, 533.403 806.158 C 533.796 805.521, 533.893 805, 533.618 805 C 533.343 805, 532.812 805.495, 532.438 806.101 M 396.471 808.446 C 395.387 809.266, 394.050 809.944, 393.500 809.953 C 392.950 809.962, 393.175 809.533, 394 809 C 395.282 808.172, 395.246 808.028, 393.750 808.015 C 392.788 808.007, 392 808.675, 392 809.500 C 392 810.433, 392.944 811, 394.500 811 C 395.875 811, 397 810.510, 397 809.912 C 397 809.215, 398.348 809.039, 400.750 809.423 C 402.813 809.752, 405.175 809.579, 406 809.038 C 407.145 808.287, 406.790 808.088, 404.500 808.194 C 402.850 808.270, 400.812 808.023, 399.971 807.644 C 399.131 807.266, 397.556 807.626, 396.471 808.446 M 380.244 809.664 C 379.553 809.943, 379.230 810.563, 379.526 811.042 C 379.822 811.521, 380.798 811.631, 381.696 811.286 C 382.787 810.868, 383.088 811.048, 382.605 811.830 C 382.207 812.474, 381.121 813.007, 380.191 813.015 C 379.261 813.024, 377.825 813.487, 377 814.046 C 375.908 814.784, 376.312 814.871, 378.482 814.364 C 380.122 813.980, 382.035 813.667, 382.732 813.667 C 383.429 813.667, 384 812.617, 384 811.333 C 384 809.085, 382.897 808.595, 380.244 809.664 M 467 814.948 C 463.193 815.378, 462.270 815.722, 464 816.065 C 465.375 816.338, 468.300 816.178, 470.500 815.711 C 472.700 815.243, 476.821 815.004, 479.657 815.180 C 482.493 815.356, 484.604 815.163, 484.348 814.750 C 483.826 813.909, 475.330 814.006, 467 814.948 M 410.463 816.060 C 410.132 816.595, 409.474 816.793, 409 816.500 C 408.526 816.207, 407.885 816.378, 407.575 816.879 C 407.265 817.381, 408.754 817.957, 410.884 818.160 C 413.580 818.417, 414.618 818.169, 414.301 817.342 C 413.673 815.705, 411.194 814.877, 410.463 816.060 M 392.252 817 C 392.544 818.082, 394.167 818.528, 398.079 818.600 L 403.500 818.700 398.519 818.286 C 395.780 818.058, 393.158 817.338, 392.693 816.686 C 392.106 815.862, 391.971 815.958, 392.252 817 M 433.750 817.723 C 435.538 817.945, 438.462 817.945, 440.250 817.723 C 442.038 817.502, 440.575 817.320, 437 817.320 C 433.425 817.320, 431.962 817.502, 433.750 817.723" stroke="none" fill="#fbf5ea" fill-rule="evenodd"/><path d="M 608 204.652 C 605.525 204.819, 599 205.443, 593.500 206.039 C 588 206.635, 577.200 207.502, 569.500 207.966 C 554.457 208.872, 527.879 211.412, 516.500 213.032 C 512.650 213.581, 504.325 214.700, 498 215.521 C 474.772 218.534, 414.417 231.919, 401.500 236.921 C 398.750 237.986, 387.050 241.863, 375.500 245.535 C 341.734 256.272, 327.047 262.887, 325.722 267.956 C 325.391 269.222, 321.224 271.772, 313.361 275.522 C 302.511 280.696, 296 285.078, 296 287.207 C 296 288.213, 300.708 287.463, 302.337 286.197 C 302.977 285.700, 305.525 284.803, 308 284.205 C 312.134 283.205, 312.337 283.242, 310.500 284.654 C 307.890 286.660, 293.022 294, 291.569 294 C 289.534 294, 285.723 297.211, 286.897 297.936 C 287.523 298.323, 286.275 299.376, 283.999 300.381 C 279.926 302.177, 278.715 304.592, 281.593 305.177 C 282.573 305.376, 281.169 306.654, 277.943 308.500 C 270.174 312.945, 268.273 316.929, 274.816 315.053 C 278.988 313.856, 278.936 315.247, 274.750 316.819 C 269.219 318.895, 267.367 320.757, 268.704 322.897 C 269.677 324.456, 269.479 324.917, 267.429 325.851 C 266.093 326.459, 265 327.417, 265 327.979 C 265 328.540, 264.419 329, 263.710 329 C 263 329, 260.431 330.800, 258 333 C 253.655 336.932, 253.767 337.677, 258.617 337.105 C 259.231 337.033, 260.334 337.697, 261.067 338.581 C 262.211 339.959, 262.052 340.457, 259.951 342.072 C 257.664 343.830, 257.633 343.966, 259.500 344.112 C 262.697 344.362, 270.260 343.957, 273.250 343.376 C 278.457 342.363, 275.983 344.729, 268.039 348.361 C 263.660 350.362, 259.405 352, 258.584 352 C 256.406 352, 240.168 359.300, 234.264 362.933 C 224.719 368.806, 224.018 373.729, 233.157 370.706 C 235.546 369.916, 238.850 368.983, 240.500 368.634 L 243.500 367.998 240 369.957 C 237.286 371.476, 236.949 371.937, 238.500 372.010 C 239.788 372.070, 239.076 372.672, 236.500 373.701 C 231.494 375.701, 225.790 379.852, 226.490 380.985 C 226.781 381.454, 226.307 382.550, 225.438 383.419 C 224.568 384.289, 224.339 385, 224.929 385 C 225.518 385, 225.887 385.563, 225.750 386.250 C 225.575 387.127, 227.737 387.649, 233 388 C 237.808 388.321, 240.013 388.814, 239.143 389.375 C 238.209 389.978, 238.127 390.461, 238.881 390.926 C 239.523 391.323, 237.504 393.495, 233.994 396.184 C 229.408 399.695, 228.309 401.012, 229.286 401.823 C 231.033 403.272, 238.810 403.070, 242.676 401.474 C 244.423 400.753, 247.798 400.047, 250.176 399.906 C 252.554 399.764, 254.950 399.338, 255.500 398.960 C 256.050 398.582, 257.175 398.244, 258 398.210 C 258.825 398.175, 261.438 397.432, 263.806 396.559 C 266.174 395.686, 269.774 394.718, 271.806 394.409 C 273.838 394.100, 277.288 393.457, 279.473 392.980 C 281.658 392.503, 283.580 392.247, 283.745 392.412 C 284.119 392.786, 266.840 399, 265.425 399 C 264.855 399, 262.896 400.101, 261.071 401.448 C 259.246 402.794, 256.515 404.167, 255.002 404.499 C 253.489 404.832, 251.216 406.205, 249.951 407.552 C 248.686 408.898, 246.942 410.014, 246.076 410.032 C 245.209 410.049, 243.602 410.742, 242.505 411.571 C 240.787 412.870, 240.717 413.217, 242.005 414.076 C 243.751 415.240, 253.792 414.446, 262.411 412.463 C 266.443 411.535, 268.907 411.415, 270.161 412.086 C 271.173 412.628, 272 412.697, 272 412.241 C 272 411.785, 274.344 411.375, 277.208 411.331 C 280.128 411.286, 282.582 410.754, 282.794 410.119 C 283.001 409.497, 283.582 409.242, 284.085 409.553 C 285.963 410.713, 284.884 411.954, 281.116 412.969 C 278.981 413.544, 276.675 414.686, 275.994 415.507 C 275.313 416.328, 274.243 417, 273.617 417 C 272.992 417, 271.359 418.012, 269.990 419.250 C 268.620 420.488, 266.938 421.500, 266.250 421.500 C 265.563 421.500, 265 421.837, 265 422.250 C 265 422.663, 265 423.512, 265 424.137 C 265 425.608, 277.824 424.485, 290.500 421.903 C 293.250 421.344, 296.625 420.661, 298 420.387 L 300.500 419.888 298.250 421.501 C 295.269 423.637, 295.403 424.438, 299.190 427.135 C 301.775 428.976, 303.528 429.367, 308.440 429.199 L 314.500 428.991 311.208 431.120 C 309.398 432.291, 307.665 432.998, 307.358 432.691 C 307.051 432.384, 304.464 433.397, 301.609 434.941 C 298.754 436.485, 294.868 438.090, 292.974 438.506 C 289.043 439.369, 286.032 441.105, 280.921 445.454 C 278.952 447.129, 276.477 449.078, 275.421 449.785 C 273.784 450.880, 274.441 451.003, 279.864 450.619 C 285.841 450.196, 286.062 450.255, 283.500 451.584 C 281.999 452.363, 280.148 453, 279.386 453 C 278.624 453, 278 453.477, 278 454.059 C 278 454.641, 278.563 454.800, 279.250 454.412 C 280.250 453.848, 280.250 453.976, 279.250 455.053 C 277.427 457.017, 277.718 457.886, 280 457.290 C 281.100 457.002, 281.999 457.157, 281.997 457.633 C 281.995 458.110, 276.888 460.041, 270.648 461.924 C 259.824 465.190, 250.799 469.983, 255.450 469.995 C 256.967 469.999, 257.133 470.267, 256.200 471.200 C 255.540 471.860, 255 473.435, 255 474.700 C 255 475.965, 254.550 477, 254 477 C 253.450 477, 253 477.498, 253 478.107 C 253 478.716, 253.603 478.982, 254.341 478.700 C 255.078 478.417, 256.241 478.531, 256.924 478.953 C 258.140 479.705, 244.500 485.069, 240.750 485.314 C 239.787 485.377, 239 485.793, 239 486.239 C 239 486.685, 237.762 487.519, 236.250 488.093 C 232.139 489.654, 225.097 494.306, 224.502 495.854 C 224.075 496.967, 225.752 497.106, 233.740 496.622 C 246.616 495.842, 246.300 495.885, 247.826 494.678 C 248.784 493.921, 249.405 494.028, 250.061 495.064 C 250.848 496.308, 250.971 496.306, 250.985 495.050 C 250.996 493.952, 251.281 493.881, 252.158 494.758 C 253.862 496.462, 251.550 498.806, 247.400 499.585 C 245.530 499.936, 244 500.608, 244 501.080 C 244 501.551, 243.360 501.692, 242.578 501.392 C 240.662 500.656, 237.619 502.402, 232.996 506.888 C 228.891 510.872, 228.872 513.790, 232.959 512.721 C 234.325 512.364, 235.324 512.680, 235.668 513.578 C 235.968 514.360, 237.039 515, 238.048 515 C 239.057 515, 240.157 515.445, 240.493 515.989 C 240.829 516.532, 240.518 516.755, 239.802 516.484 C 237.706 515.690, 228.535 519.620, 228.162 521.472 C 227.876 522.894, 228.487 523.076, 232.162 522.661 C 234.548 522.391, 237.745 521.690, 239.266 521.104 C 240.788 520.517, 245.963 519.835, 250.766 519.588 C 256.508 519.292, 258.729 519.446, 257.250 520.037 C 256.012 520.531, 255 521.400, 255 521.968 C 255 522.535, 254.662 522.929, 254.250 522.841 C 253.838 522.754, 252.825 522.945, 252 523.265 C 251.175 523.586, 248.700 524.393, 246.500 525.059 C 237.949 527.649, 230.002 532.747, 232.271 534.189 C 233.237 534.802, 233.232 534.973, 232.250 534.985 C 231.563 534.993, 231 535.662, 231 536.471 C 231 537.286, 229.579 538.311, 227.818 538.767 C 226.068 539.221, 224.435 540.196, 224.188 540.935 C 223.920 541.740, 224.193 541.998, 224.870 541.580 C 225.492 541.196, 226 541.286, 226 541.781 C 226 542.275, 224.177 543.281, 221.950 544.017 C 213.092 546.940, 216.720 547.538, 232.922 545.824 C 233.240 545.791, 234.850 545.838, 236.500 545.930 C 239.067 546.074, 238.568 546.456, 233.038 548.583 C 229.484 549.950, 226.329 551.467, 226.028 551.955 C 225.727 552.442, 224.227 553.156, 222.696 553.540 C 219.339 554.383, 219.683 556.645, 223.093 556.152 C 224.417 555.961, 225.165 556.146, 224.756 556.563 C 223.174 558.176, 228.482 559.611, 232.990 558.789 C 235.460 558.339, 238.105 558.210, 238.867 558.503 C 239.630 558.795, 240.866 558.526, 241.614 557.905 C 242.362 557.284, 243.600 557.016, 244.365 557.310 C 245.130 557.604, 246.327 557.316, 247.025 556.672 C 247.995 555.775, 248.138 555.777, 247.632 556.679 C 247.230 557.395, 247.858 558.028, 249.235 558.292 C 251.243 558.678, 251.196 558.743, 248.817 558.864 C 245.951 559.009, 243.997 562.397, 245.762 564.162 C 246.895 565.295, 254.459 565.542, 261.500 564.675 C 264.250 564.337, 265.938 564.309, 265.250 564.613 C 264.563 564.918, 264 565.535, 264 565.986 C 264 566.811, 269.888 569.398, 271.214 569.155 C 271.607 569.083, 271.671 569.694, 271.357 570.512 C 270.617 572.442, 271.730 572.413, 273.690 570.452 C 275.484 568.659, 276.308 569.035, 275.454 571.258 C 274.784 573.005, 271.952 573.966, 267.417 573.986 C 265.721 573.994, 264.022 574.312, 263.641 574.692 C 263.260 575.073, 261.948 575.537, 260.724 575.722 C 257.810 576.164, 253 578.305, 253 579.161 C 253 580.482, 255.655 580.699, 266.739 580.282 L 277.978 579.859 277.391 582.796 C 276.871 585.394, 277.132 585.816, 279.646 586.447 C 282.575 587.182, 295.878 587.229, 311.250 586.559 C 316.063 586.349, 320 586.478, 320 586.845 C 320 587.213, 318.088 588.091, 315.750 588.796 C 313.413 589.502, 306.904 591.727, 301.286 593.740 C 292.329 596.949, 290.999 597.726, 290.488 600.055 C 290.044 602.078, 288.918 603.037, 285.766 604.077 C 281.791 605.389, 276 609.421, 276 610.876 C 276 611.260, 276.900 611.642, 278 611.725 C 279.100 611.808, 280 611.364, 280 610.738 C 280 609.958, 280.394 610, 281.250 610.871 C 282.253 611.891, 282.033 612.523, 280.139 614.071 C 278.683 615.261, 278.300 616.027, 279.139 616.070 C 280.137 616.122, 280.090 616.322, 278.960 616.820 C 278.113 617.194, 275.863 618.656, 273.960 620.069 C 272.057 621.481, 268.475 623.439, 266 624.420 C 256.894 628.026, 255 628.990, 255 630.019 C 255 630.743, 255.701 630.730, 257.250 629.980 C 259.349 628.963, 259.376 628.989, 257.653 630.376 C 256.637 631.194, 255.174 631.620, 254.403 631.324 C 253.631 631.028, 253 631.284, 253 631.893 C 253 632.502, 254.350 633, 256 633 C 257.650 633, 259 633.450, 259 634 C 259 634.550, 260.098 635, 261.441 635 C 265.868 635, 264.980 636.586, 258.446 640.343 C 252.494 643.767, 252 644.314, 252 647.476 C 252 649.566, 252.619 651.247, 253.590 651.790 C 254.464 652.279, 255.139 652.977, 255.090 653.340 C 255.040 653.703, 255 654.214, 255 654.475 C 255 654.737, 256.192 654.497, 257.649 653.943 C 259.851 653.106, 260.106 653.168, 259.158 654.310 C 258.530 655.066, 258.351 656.018, 258.759 656.425 C 259.166 656.833, 258.839 657.017, 258.032 656.833 C 257.031 656.606, 256.585 657.296, 256.631 659 C 256.696 661.395, 256.423 661.510, 250.151 661.748 C 246.550 661.885, 243.130 662.514, 242.552 663.146 C 241.784 663.984, 241.964 664.131, 243.218 663.691 C 244.163 663.359, 245.209 663.529, 245.542 664.068 C 245.876 664.608, 245.609 664.926, 244.949 664.775 C 244.290 664.624, 243.523 665.125, 243.245 665.889 C 242.900 666.841, 243.175 667.031, 244.120 666.492 C 245.255 665.846, 245.270 665.954, 244.208 667.095 C 243.108 668.277, 242.777 668.262, 241.974 666.992 C 241.244 665.837, 241.027 665.807, 241.015 666.857 C 241.006 667.649, 240.376 667.975, 239.502 667.639 C 238.563 667.279, 237.358 668.079, 236.275 669.782 C 235.324 671.277, 234.086 672.841, 233.523 673.257 C 231.684 674.619, 237.154 677.919, 240.231 677.304 C 241.944 676.961, 243 677.179, 243 677.875 C 243 678.494, 242.004 679, 240.786 679 C 238.677 679, 238.655 679.083, 240.322 680.750 C 241.405 681.833, 242.344 682.119, 242.786 681.500 C 243.179 680.950, 244.175 680.381, 245 680.236 C 246.212 680.022, 246.183 680.221, 244.844 681.277 C 243.849 682.062, 243.477 683.166, 243.913 684.042 C 244.312 684.844, 244.592 686.175, 244.536 687 C 244.479 687.825, 244.898 688.846, 245.467 689.269 C 246.126 689.760, 245.811 690.564, 244.597 691.491 C 242.294 693.250, 243.368 693.800, 249.922 694.218 C 256.498 694.637, 256.071 696.564, 248.933 698.673 C 245.533 699.678, 242.533 701.064, 242.268 701.752 C 241.364 704.094, 242.926 707.578, 246.838 711.944 C 249.988 715.459, 251.202 716.185, 253.121 715.700 C 255.399 715.125, 255.418 715.161, 253.559 716.550 C 252.491 717.347, 251.084 718, 250.431 718 C 249.779 718, 248.664 718.700, 247.953 719.556 C 246.887 720.841, 246.905 721.059, 248.057 720.806 C 248.824 720.638, 250.058 719.938, 250.798 719.250 C 251.538 718.563, 252.647 718, 253.263 718 C 253.878 718, 253.509 718.661, 252.441 719.468 C 250.525 720.917, 250.526 720.938, 252.500 721.087 C 253.600 721.169, 254.871 721.172, 255.324 721.094 C 255.778 721.015, 255.887 721.374, 255.567 721.892 C 255.247 722.409, 253.368 722.704, 251.392 722.548 L 247.798 722.263 250.465 724.555 C 253.247 726.945, 259.992 728.640, 262.213 727.508 C 262.921 727.147, 262.633 727.555, 261.573 728.416 C 258.941 730.551, 259.718 730.980, 266.506 731.136 L 272.344 731.271 269.006 732.997 C 266.683 734.198, 266.099 734.905, 267.084 735.322 C 267.863 735.651, 267.306 735.676, 265.847 735.376 C 264.186 735.035, 262.877 735.340, 262.347 736.190 C 261.881 736.937, 260.262 738.335, 258.750 739.297 C 254.288 742.135, 255.296 743.309, 261.603 742.621 C 266.254 742.114, 267.688 742.353, 270.042 744.030 C 272.248 745.601, 274.391 746.036, 279.689 745.988 C 289.676 745.898, 293.096 745.496, 297 743.950 C 298.925 743.188, 300.725 742.629, 301 742.708 C 301.275 742.787, 302.361 743.187, 303.414 743.596 C 304.892 744.171, 305.144 744.017, 304.517 742.920 C 303.861 741.770, 303.963 741.738, 305.053 742.750 C 305.794 743.438, 307.162 744, 308.093 744 C 309.024 744, 310.045 744.675, 310.362 745.500 C 310.772 746.571, 310.266 747, 308.591 747 C 307.301 747, 305.747 747.600, 305.138 748.333 C 304.252 749.401, 304.731 749.667, 307.549 749.667 C 309.484 749.667, 311.614 750.258, 312.283 750.980 C 313.158 751.924, 313.168 752.107, 312.319 751.630 C 311.670 751.266, 310.873 751.397, 310.548 751.922 C 310.223 752.447, 310.755 753.341, 311.729 753.908 C 313.314 754.831, 313.325 754.942, 311.833 754.970 C 310.917 754.986, 309.972 754.438, 309.734 753.750 C 309.235 752.307, 301.683 756.096, 301.347 757.959 C 301.225 758.635, 301.343 758.661, 301.658 758.025 C 302.472 756.385, 303.791 756.842, 303.639 758.712 C 303.442 761.143, 306.756 761.509, 309.307 759.338 C 311.189 757.736, 311.292 757.724, 310.110 759.250 C 308.887 760.830, 309.050 761, 311.796 761 C 313.468 761, 315.661 761.267, 316.668 761.594 C 318.210 762.094, 318.262 762.010, 317 761.064 C 315.825 760.183, 316.150 760.085, 318.500 760.610 C 322.139 761.424, 322.972 762, 320.512 762 C 318.774 762, 318.778 762.103, 320.595 764.233 C 322.048 765.935, 322.095 766.152, 320.793 765.146 C 319.364 764.041, 318.717 764.085, 316.820 765.413 L 314.555 767 316.718 767 C 317.908 767, 319.134 767.408, 319.442 767.907 C 320.086 768.948, 316.033 768.124, 314.437 766.888 C 312.952 765.739, 306.037 767.001, 306.291 768.374 C 306.406 768.993, 305.720 769.369, 304.766 769.210 C 303.598 769.014, 303.215 769.396, 303.592 770.378 C 304.027 771.514, 302.860 771.983, 298.326 772.495 C 290.588 773.369, 290.061 773.591, 293 774.736 C 296.940 776.271, 304 777.135, 304 776.081 C 304 775.563, 302.988 774.967, 301.750 774.757 C 300.512 774.546, 302.200 774.467, 305.500 774.580 C 313.914 774.869, 315.020 775.154, 311 776 L 307.500 776.737 311.167 776.868 C 313.312 776.945, 315.008 776.481, 315.254 775.750 C 315.584 774.770, 315.991 774.761, 317.139 775.708 C 317.945 776.373, 319.588 776.659, 320.790 776.345 C 322.206 775.974, 323.176 776.295, 323.544 777.254 C 324.278 779.167, 334.424 778.514, 337.837 776.333 C 339.122 775.512, 340.459 775.126, 340.808 775.474 C 341.157 775.823, 340.855 776.472, 340.137 776.916 C 339.171 777.513, 339.374 777.864, 340.917 778.268 C 342.064 778.568, 342.773 778.442, 342.493 777.988 C 342.212 777.534, 343.396 776.852, 345.124 776.473 C 347.435 775.965, 347.900 775.551, 346.883 774.907 C 345.803 774.222, 345.907 774.027, 347.357 774.015 C 348.642 774.005, 349.027 774.487, 348.607 775.582 C 348.273 776.452, 348 777.378, 348 777.641 C 348 777.903, 347.550 777.840, 347 777.500 C 345.332 776.469, 345.878 777.451, 347.967 779.240 C 349.739 780.757, 350.086 780.771, 351.476 779.381 C 352.324 778.533, 352.742 777.392, 352.405 776.846 C 352.003 776.196, 352.433 776.182, 353.645 776.804 C 360.333 780.236, 363.325 781.092, 364.140 779.808 C 364.745 778.854, 364.974 778.830, 364.985 779.719 C 364.994 780.425, 365.736 780.701, 366.750 780.374 C 368.235 779.897, 368.273 779.979, 367 780.916 C 366.142 781.548, 363.895 781.765, 361.750 781.423 C 359.348 781.039, 358 781.215, 358 781.912 C 358 782.510, 358.337 782.947, 358.750 782.882 C 359.163 782.816, 360.400 782.854, 361.500 782.965 C 362.600 783.076, 360.851 783.808, 357.612 784.591 C 353.148 785.672, 351.389 785.738, 350.338 784.866 C 348.008 782.932, 347.722 784.663, 350.018 786.802 C 351.844 788.503, 351.908 788.783, 350.442 788.653 C 349.492 788.569, 348.520 789.175, 348.281 790 C 347.896 791.333, 347.966 791.333, 348.909 790 C 349.561 789.077, 349.975 788.958, 349.985 789.691 C 350.010 791.655, 348.259 792.117, 346.700 790.557 C 345.896 789.753, 344.960 789.374, 344.619 789.714 C 344.279 790.055, 344 790.019, 344 789.634 C 344 789.250, 345.013 788.551, 346.250 788.081 C 350.348 786.524, 341.809 785.593, 337.335 787.109 C 333.251 788.493, 330.403 790.344, 333 789.926 C 335.231 789.567, 338.080 791.062, 337.366 792.217 C 337.024 792.770, 337.364 793.616, 338.122 794.096 C 339.212 794.787, 339.134 794.973, 337.750 794.985 C 336.788 794.993, 336 795.487, 336 796.083 C 336 796.679, 336.563 796.965, 337.250 796.718 C 337.938 796.472, 339.288 796.675, 340.250 797.170 C 341.399 797.761, 342 797.694, 342 796.976 C 342 796.374, 342.457 796.165, 343.016 796.510 C 343.575 796.856, 343.831 797.464, 343.586 797.862 C 343.340 798.259, 344.007 798.650, 345.069 798.730 C 346.131 798.810, 347 798.454, 347 797.938 C 347 797.422, 347.675 797, 348.500 797 C 349.325 797, 350 796.550, 350 796 C 350 794.706, 348.300 794.706, 347.500 796 C 346.477 797.656, 344 797.125, 344 795.250 C 344 793.895, 344.846 793.500, 347.750 793.500 C 351.174 793.500, 351.500 793.739, 351.500 796.250 C 351.500 797.997, 350.953 799.026, 350 799.070 C 348.975 799.118, 349.133 799.437, 350.500 800.078 C 352.146 800.849, 351.968 800.943, 349.500 800.609 C 347.850 800.385, 345.375 799.892, 344 799.513 C 342.625 799.133, 340.375 798.577, 339 798.277 C 335.455 797.504, 333.565 795.887, 335.098 794.939 C 336.492 794.078, 335.586 791, 333.938 791 C 333.319 791, 332.577 791.900, 332.290 793 C 332.002 794.100, 331.032 794.964, 330.133 794.921 C 329.097 794.871, 328.957 794.658, 329.750 794.338 C 330.438 794.060, 331 793.366, 331 792.794 C 331 792.167, 330.406 792.248, 329.500 793 C 328.675 793.685, 328 794.595, 328 795.024 C 328 796.588, 334.781 799.749, 337.497 799.451 C 339.033 799.282, 341.238 799.743, 342.395 800.474 C 345.343 802.337, 358.306 803.073, 356.829 801.294 C 356.008 800.304, 356.254 800, 357.878 800 C 359.045 800, 360 800.627, 360 801.393 C 360 803.096, 362.449 804.149, 364.541 803.346 C 365.522 802.970, 365.976 803.254, 365.791 804.127 C 365.460 805.690, 368.856 806.104, 370.706 804.726 C 371.370 804.232, 372.374 804.113, 372.938 804.462 C 374.579 805.476, 388.767 806.308, 390.721 805.505 C 391.699 805.103, 397.225 804.566, 403 804.312 C 408.775 804.058, 414.063 803.809, 414.750 803.759 C 415.438 803.708, 416 803.118, 416 802.447 C 416 801.776, 417.436 801.016, 419.191 800.759 C 421.597 800.406, 422.949 800.858, 424.691 802.600 C 427.388 805.297, 427.660 807, 425.393 807 C 424.318 807, 423.993 806.460, 424.412 805.369 C 424.956 803.951, 424.482 803.838, 420.769 804.506 C 418.421 804.929, 414.925 805.349, 413 805.441 C 406.266 805.762, 399.736 807.219, 401.141 808.087 C 401.879 808.543, 403.612 808.674, 404.992 808.378 C 406.983 807.949, 407.191 808.063, 406 808.930 C 405.151 809.548, 402.873 809.762, 400.750 809.423 C 398.348 809.039, 397 809.215, 397 809.912 C 397 810.544, 395.217 810.951, 392.750 810.884 C 390.413 810.820, 389.288 810.562, 390.250 810.311 C 391.212 810.059, 392 809.410, 392 808.868 C 392 807.899, 390.699 808.385, 388.271 810.261 C 387.394 810.938, 387.332 811.752, 388.056 813.105 C 388.897 814.676, 388.723 815, 387.035 815 C 385.916 815, 385 815.447, 385 815.994 C 385 817.058, 387.764 816.902, 389.637 815.732 C 390.325 815.302, 390.720 815.666, 390.637 816.653 C 390.562 817.551, 391.063 818.483, 391.751 818.726 C 392.439 818.969, 392.850 818.567, 392.665 817.834 C 392.479 817.100, 392.517 816.837, 392.747 817.250 C 392.978 817.662, 395.492 818.073, 398.333 818.163 L 403.500 818.326 398 819 L 392.500 819.674 397 819.955 C 399.475 820.110, 401.725 820.240, 402 820.243 C 402.275 820.246, 404.902 819.947, 407.837 819.578 C 411.453 819.124, 412.966 819.245, 412.528 819.954 C 412.173 820.529, 412.246 821.039, 412.691 821.087 C 418.353 821.697, 424.098 821.704, 422.554 821.099 C 420.647 820.352, 420.648 820.325, 422.624 819.808 C 423.734 819.518, 428.850 819.230, 433.994 819.169 C 439.138 819.107, 443.606 818.660, 443.924 818.175 C 444.241 817.690, 449.900 817.374, 456.500 817.473 C 463.100 817.572, 470.300 817.318, 472.500 816.910 C 474.700 816.502, 480.444 815.872, 485.264 815.510 C 490.084 815.148, 495.481 814.436, 497.257 813.926 C 499.034 813.417, 503.190 812.993, 506.493 812.985 C 510.319 812.975, 511.998 812.651, 511.118 812.094 C 510.038 811.410, 510.218 811.066, 511.943 810.518 C 514.608 809.672, 516.028 810.738, 513.971 812.039 C 511.967 813.306, 513.497 813.231, 518.166 811.832 C 521.138 810.942, 522.342 810.942, 523.232 811.832 C 524.900 813.500, 531.593 813.421, 530.210 811.750 C 529.422 810.798, 529.930 810.471, 532.338 810.377 C 534.077 810.309, 534.707 810.456, 533.738 810.703 C 532.769 810.949, 532.189 811.497, 532.451 811.920 C 532.902 812.650, 549.875 808.813, 551.997 807.502 C 552.548 807.161, 552.993 806.346, 552.985 805.691 C 552.975 804.964, 552.606 805.074, 552.038 805.972 C 551.246 807.224, 551.005 807.176, 550.418 805.648 C 549.897 804.290, 549.090 804.009, 547.114 804.496 C 545.024 805.012, 544.748 804.890, 545.734 803.886 C 546.413 803.196, 547.763 802.565, 548.734 802.484 C 557.754 801.732, 562.176 800.045, 558.750 798.662 C 558.003 798.361, 558.205 798.126, 559.250 798.079 C 560.212 798.036, 561 798.450, 561 799 C 561 799.550, 561.477 800, 562.059 800 C 562.641 800, 562.840 799.550, 562.500 799 C 562.151 798.435, 562.970 798, 564.382 798 C 565.757 798, 567.118 798.382, 567.406 798.848 C 567.991 799.794, 574.715 799.619, 575.702 798.631 C 576.049 798.284, 577.968 798, 579.967 798 C 581.965 798, 584.082 797.518, 584.671 796.929 C 585.260 796.340, 587.713 795.641, 590.121 795.377 C 595.541 794.781, 600 792.921, 600 791.256 C 600 790.565, 600.477 790, 601.059 790 C 601.641 790, 601.840 790.450, 601.500 791 C 600.701 792.293, 602.076 792.261, 607.640 790.860 C 610.943 790.029, 611.806 789.463, 610.833 788.766 C 609.491 787.805, 610.774 788.099, 614.500 789.607 C 615.325 789.941, 616 789.716, 616 789.107 C 616 788.498, 617.013 787.992, 618.250 787.983 C 622.406 787.951, 634.357 785.040, 635.070 783.886 C 635.459 783.258, 636.277 783.053, 636.888 783.431 C 637.500 783.809, 638 783.686, 638 783.157 C 638 782.629, 642.024 780.942, 646.942 779.409 C 651.860 777.876, 655.616 776.187, 655.287 775.656 C 654.942 775.097, 655.221 775.019, 655.952 775.470 C 656.646 775.899, 659.078 775.691, 661.357 775.007 C 663.635 774.323, 666.162 773.568, 666.972 773.328 C 668.268 772.945, 668.268 772.771, 666.972 771.881 C 665.854 771.112, 666.040 771.021, 667.750 771.502 C 669.132 771.891, 670 771.698, 670 771.001 C 670 770.354, 668.819 770.003, 667.250 770.184 C 665.737 770.358, 664.607 771.046, 664.738 771.714 C 664.869 772.382, 664.400 772.707, 663.695 772.437 C 662.600 772.016, 648.216 773.808, 638.500 775.576 C 632.381 776.689, 638.571 774.121, 646.064 772.438 C 654.964 770.439, 657.920 769.075, 653.450 769.030 C 651.772 769.014, 649.860 769.540, 649.200 770.200 C 648.288 771.112, 648 771.116, 648 770.219 C 648 768.657, 652.350 767.620, 655.542 768.421 C 657.192 768.835, 658.612 768.530, 659.591 767.552 C 660.759 766.383, 661.503 766.297, 662.898 767.169 C 664.023 767.871, 665.786 767.989, 667.599 767.482 C 669.195 767.037, 670.885 766.762, 671.355 766.871 C 671.826 766.981, 672.748 766.624, 673.405 766.079 C 674.062 765.534, 676.461 764.790, 678.737 764.426 C 682.598 763.809, 682.837 763.906, 682.321 765.882 C 681.690 768.295, 682.254 768.553, 684.221 766.750 C 684.971 766.063, 686.439 765.018, 687.483 764.429 C 690.766 762.575, 690.492 760.942, 686.947 761.234 C 684.963 761.397, 683.608 761.008, 683.434 760.225 C 683.278 759.524, 683.379 759.411, 683.658 759.975 C 683.938 760.539, 684.606 761, 685.142 761 C 685.679 761, 685.872 760.601, 685.570 760.114 C 685.269 759.626, 685.918 758.993, 687.013 758.707 C 688.107 758.421, 688.751 758.595, 688.442 759.093 C 687.575 760.496, 689.467 760.181, 695 758 C 697.791 756.900, 700.957 756, 702.037 756 C 703.117 756, 704 755.564, 704 755.031 C 704 754.499, 704.680 754.324, 705.511 754.643 C 706.648 755.079, 706.852 754.761, 706.334 753.361 C 705.956 752.338, 705.230 751.220, 704.722 750.879 C 704.214 750.537, 705.889 750.216, 708.444 750.164 C 711.667 750.100, 713.262 750.520, 713.652 751.536 C 713.961 752.341, 715.098 753, 716.178 753 C 718.676 753, 721.352 750.378, 720.409 748.853 C 719.963 748.130, 720.127 747.961, 720.845 748.405 C 721.480 748.797, 722 748.641, 722 748.059 C 722 747.477, 721.460 747, 720.800 747 C 719.867 747, 719.867 746.733, 720.800 745.800 C 722.174 744.426, 722.432 742.615, 721.141 743.413 C 720.668 743.705, 720.397 742.886, 720.539 741.592 C 720.754 739.635, 720.437 739.333, 718.649 739.791 C 717.467 740.094, 715.024 741.165, 713.220 742.171 C 711.415 743.177, 709.390 743.985, 708.720 743.966 C 708.049 743.947, 709.300 743.063, 711.500 742 C 713.700 740.937, 715.144 740.053, 714.709 740.034 C 713.192 739.969, 700.490 744.278, 699.208 745.293 C 698.326 745.990, 697.588 745.988, 696.884 745.284 C 695.514 743.914, 700.723 740.801, 708.250 738.491 C 711.413 737.520, 714 736.311, 714 735.804 C 714 735.297, 713.550 735.160, 713 735.500 C 712.450 735.840, 712.004 735.754, 712.008 735.309 C 712.012 734.864, 713.076 734.008, 714.373 733.408 C 716.479 732.432, 716.674 732.530, 716.204 734.326 C 715.787 735.921, 716.040 736.199, 717.427 735.667 C 718.388 735.298, 721.042 734.697, 723.325 734.332 C 729.362 733.367, 730.675 731.659, 727.281 729.186 C 724.935 727.477, 724.756 726.999, 725.931 725.584 C 726.675 724.686, 727.510 724.177, 727.785 724.452 C 728.060 724.727, 727.658 725.722, 726.893 726.663 C 725.662 728.176, 725.709 728.296, 727.302 727.699 C 728.310 727.321, 728.854 727.428, 728.536 727.942 C 728.223 728.448, 728.425 729.144, 728.984 729.490 C 729.543 729.835, 730 729.615, 730 729 C 730 728.385, 730.454 728.163, 731.009 728.506 C 732.697 729.549, 736.196 727.953, 735.604 726.410 C 735.306 725.634, 735.525 725, 736.090 725 C 736.656 725, 736.840 724.550, 736.500 724 C 736.160 723.450, 735.207 723, 734.382 723 C 733.557 723, 733.131 723.402, 733.434 723.894 C 733.738 724.385, 732.888 724.723, 731.544 724.644 C 730.003 724.553, 729.452 724.150, 730.051 723.550 C 731.561 722.038, 731.154 721.020, 729.250 721.546 C 728.288 721.812, 728.778 721.422, 730.340 720.678 C 731.902 719.935, 733.590 718.690, 734.090 717.913 C 734.851 716.731, 735.143 716.722, 735.875 717.857 C 736.485 718.803, 736.957 718.879, 737.434 718.107 C 737.810 717.498, 739.150 717, 740.411 717 C 743.697 717, 750.703 709.833, 750.228 706.958 C 750.179 706.659, 751.012 706.349, 752.079 706.269 C 754.448 706.091, 757.868 703.039, 755.821 702.930 C 755.095 702.891, 755.400 702.435, 756.500 701.916 C 758.207 701.111, 758.093 701.028, 755.726 701.352 C 754.201 701.561, 752.724 701.362, 752.444 700.910 C 752.165 700.457, 751.202 700.369, 750.304 700.714 C 749.213 701.132, 748.912 700.952, 749.395 700.170 C 749.793 699.526, 749.668 699, 749.118 699 C 748.568 699, 747.840 699.450, 747.500 700 C 747.160 700.550, 746.403 701, 745.819 701 C 745.148 701, 745.215 700.446, 746 699.500 C 746.685 698.675, 747.759 698, 748.387 698 C 749.016 698, 751.098 697.168, 753.015 696.151 C 754.932 695.134, 757.703 694.470, 759.173 694.675 C 761.006 694.931, 762.704 694.252, 764.579 692.514 C 767.735 689.589, 767.572 689.152, 763.198 688.818 C 761.439 688.684, 760 688.220, 760 687.787 C 760 687.354, 759.663 687.053, 759.250 687.118 C 755.448 687.719, 758.078 683.412, 762.690 681.485 C 764.679 680.654, 766.024 679.691, 765.678 679.344 C 765.332 678.998, 764.368 679.279, 763.537 679.969 C 762.706 680.659, 761.378 680.975, 760.586 680.671 C 759.190 680.136, 757.001 681.816, 757.335 683.167 C 757.426 683.533, 757.163 684.171, 756.750 684.583 C 756.337 684.996, 756 684.808, 756 684.167 C 756 683.525, 755.612 683, 755.139 683 C 754.665 683, 754.378 684.013, 754.501 685.250 C 754.624 686.487, 754.529 686.706, 754.291 685.735 C 754.052 684.765, 753.439 684.229, 752.929 684.544 C 752.418 684.860, 752 684.650, 752 684.078 C 752 683.506, 753.137 682.753, 754.526 682.404 C 755.916 682.055, 757.539 680.861, 758.134 679.750 C 759.008 678.116, 759.389 677.995, 760.126 679.115 C 760.877 680.255, 761.287 680.174, 762.449 678.655 C 763.518 677.256, 764.662 676.951, 767.180 677.393 C 769.006 677.714, 769.938 677.719, 769.250 677.405 C 767.284 676.506, 767.791 675.133, 769.887 675.681 C 772.210 676.288, 773.729 674.217, 771.569 673.388 C 770.712 673.059, 770.308 672.311, 770.670 671.725 C 771.087 671.051, 770.699 670.902, 769.612 671.319 C 768.556 671.724, 768.141 671.581, 768.532 670.948 C 768.882 670.382, 770.099 670.214, 771.235 670.575 C 772.876 671.095, 773.172 670.890, 772.668 669.578 C 772.284 668.576, 772.619 667.700, 773.517 667.355 C 776.549 666.192, 774.828 665.322, 769.083 665.115 C 764.119 664.936, 763.091 665.191, 762.699 666.701 C 762.289 668.281, 762.216 668.256, 762.101 666.500 C 761.992 664.851, 761.804 664.761, 761.029 665.987 C 760.298 667.143, 760.128 666.951, 760.265 665.129 C 760.375 663.672, 761.348 662.438, 762.834 661.873 C 764.694 661.166, 765.121 660.411, 764.752 658.482 C 764.491 657.117, 764.665 656, 765.139 656 C 765.612 656, 766 655.270, 766 654.378 C 766 652.997, 765.739 652.952, 764.250 654.073 C 762.606 655.311, 762.601 655.280, 764.173 653.558 C 765.968 651.592, 765.187 648.971, 762 646.268 C 760.717 645.179, 760.789 645.095, 762.500 645.685 C 764.274 646.297, 764.345 646.184, 763.128 644.687 C 761.553 642.752, 761.425 642.847, 765.931 642.600 C 767.819 642.496, 769.546 641.861, 769.771 641.188 C 769.995 640.515, 770.784 639.358, 771.525 638.618 C 772.564 637.578, 772.601 636.993, 771.686 636.052 C 770.767 635.107, 770.838 634.887, 772 635.074 C 774.258 635.437, 777 633.967, 777 632.393 C 777 631.627, 776.588 631, 776.085 631 C 775.583 631, 774.060 629.012, 772.702 626.583 C 770.842 623.255, 770.513 621.866, 771.367 620.947 C 772.241 620.006, 771.986 619.852, 770.251 620.270 C 769.014 620.568, 767.750 620.404, 767.442 619.906 C 767.134 619.408, 767.584 619, 768.441 619 C 769.298 619, 770 618.325, 770 617.500 C 770 616.675, 769.597 616, 769.105 616 C 768.589 616, 768.566 614.426, 769.050 612.278 C 769.962 608.236, 769.442 606.687, 767.961 609.029 C 767.393 609.927, 767.025 610.036, 767.015 609.309 C 766.992 607.486, 768.930 606.697, 770.411 607.926 C 771.388 608.737, 772.029 608.670, 772.859 607.670 C 773.477 606.925, 773.663 605.996, 773.272 605.605 C 772.881 605.214, 773.335 605.191, 774.280 605.554 C 777.124 606.645, 776.226 604.405, 772.513 601.146 C 769.353 598.371, 763.620 596.073, 758.988 595.724 C 757.981 595.648, 757.434 595.034, 757.717 594.295 C 757.990 593.583, 757.716 593, 757.107 593 C 756.498 593, 756 592.502, 756 591.893 C 756 591.238, 756.714 591.073, 757.750 591.489 C 758.712 591.876, 760.063 592.422, 760.750 592.703 C 761.438 592.984, 762 592.706, 762 592.085 C 762 591.464, 759.862 589.559, 757.250 587.851 C 754.638 586.143, 753.250 585, 754.167 585.310 C 755.145 585.641, 756.075 585.246, 756.417 584.355 C 757.402 581.788, 757.087 580.970, 754.750 580.031 C 752.849 579.267, 752.791 579.117, 754.372 579.063 C 755.823 579.014, 755.994 578.698, 755.131 577.658 C 754.519 576.920, 754.313 576.020, 754.675 575.658 C 755.037 575.296, 754.471 574.985, 753.417 574.967 C 751.699 574.937, 751.756 574.720, 753.964 572.883 C 755.804 571.352, 757.511 570.919, 760.701 571.172 C 764.872 571.504, 766.835 570.160, 765.451 567.921 C 765.146 567.427, 765.594 567.291, 766.448 567.618 C 767.433 567.996, 768 567.656, 768 566.689 C 768 564.218, 766.860 561.968, 765.907 562.558 C 765.421 562.858, 765.291 562.406, 765.618 561.552 C 766.412 559.485, 767.744 559.583, 768.311 561.750 C 768.746 563.417, 768.774 563.417, 768.884 561.750 C 768.997 560.042, 769.951 559.615, 773 559.906 C 774.296 560.030, 774.291 559.920, 772.959 559.092 C 772.111 558.565, 769.090 557.948, 766.245 557.720 C 763.400 557.492, 760.494 556.848, 759.786 556.289 C 759.079 555.730, 757.016 555.286, 755.202 555.303 C 751.799 555.334, 748.315 552.917, 749.350 551.243 C 749.852 550.431, 761.810 548.849, 767.272 548.872 C 768.301 548.876, 768.760 548.420, 768.367 547.785 C 767.957 547.121, 768.154 546.977, 768.870 547.420 C 770.361 548.341, 776.190 547.117, 775.514 546.023 C 775.238 545.576, 775.707 544.943, 776.558 544.616 C 777.596 544.218, 777.872 544.430, 777.398 545.261 C 777.010 545.943, 777.596 545.600, 778.700 544.500 C 780.090 543.116, 780.368 542.242, 779.604 541.663 C 778.951 541.168, 779.420 541.028, 780.750 541.320 C 783.895 542.009, 783.562 540.716, 780.250 539.375 C 772.709 536.324, 767.811 534.858, 766.647 535.305 C 765.937 535.578, 764.872 535.025, 764.280 534.077 C 763.484 532.802, 762.005 532.398, 758.602 532.526 C 756.071 532.621, 754 532.547, 754 532.363 C 754 531.638, 761.581 528.706, 762.894 528.923 C 763.660 529.050, 764.648 528.569, 765.090 527.855 C 765.977 526.419, 772.650 526.087, 777.750 527.225 C 780.275 527.788, 781 527.621, 781 526.475 C 781 525.664, 781.788 525.007, 782.750 525.015 C 784.246 525.028, 784.282 525.172, 783 526 C 782.175 526.533, 781.950 526.962, 782.500 526.953 C 783.050 526.944, 784.350 526.293, 785.388 525.507 C 786.783 524.451, 787.783 524.349, 789.215 525.115 C 790.734 525.928, 791.893 525.649, 794.570 523.826 C 800.098 520.062, 798.820 517.040, 791.668 516.968 C 788.666 516.938, 788.602 516.859, 790.441 515.468 C 792.293 514.067, 792.297 514, 790.524 514 C 787.728 514, 789.584 512.682, 794.750 511 C 797.283 510.175, 799.527 508.969, 799.738 508.320 C 799.962 507.629, 797.816 506.414, 794.560 505.387 C 789.348 503.744, 786.870 501.604, 790.750 502.096 C 793.293 502.418, 798.071 500.923, 797.492 499.987 C 797.220 499.547, 797.909 499.425, 799.024 499.717 C 802.395 500.598, 806.787 494.223, 803.997 492.498 C 803.327 492.084, 803.328 491.255, 804 490 C 804.674 488.740, 804.674 487.916, 803.999 487.499 C 803.446 487.157, 803.283 485.668, 803.637 484.189 C 804.408 480.971, 804.453 480.908, 806.158 480.636 C 808.700 480.231, 811.585 477.920, 810.250 477.359 C 809.563 477.070, 808.991 476.308, 808.980 475.667 C 808.957 474.316, 798.561 468, 796.361 468 C 795.548 468, 795.136 467.588, 795.447 467.085 C 795.758 466.582, 795.447 465.982, 794.756 465.752 C 793.116 465.206, 793.023 460, 794.654 460 C 798.436 460, 797.647 452.134, 793.839 451.875 C 790.663 451.659, 790.188 451.524, 789.333 450.590 C 788.849 450.061, 789.024 449.981, 789.750 450.399 C 790.438 450.794, 791 450.693, 791 450.173 C 791 449.004, 796.560 446.300, 800.396 445.605 C 801.963 445.320, 803.479 444.854, 803.765 444.568 C 804.582 443.751, 802.010 441.103, 797.154 437.762 C 792.496 434.557, 788.642 431.089, 789.500 430.875 C 789.775 430.806, 790.450 430.637, 791 430.500 C 791.550 430.363, 792.520 430.194, 793.155 430.125 C 796.173 429.798, 790.052 425.960, 780.986 422.495 C 775.494 420.395, 771 418.112, 771 417.422 C 771 416.732, 770.609 416.017, 770.132 415.833 C 769.655 415.650, 768.920 414.375, 768.499 413 L 767.734 410.500 769.626 412.811 C 770.906 414.376, 772.089 414.903, 773.288 414.443 C 774.855 413.842, 774.883 413.633, 773.525 412.632 C 772.342 411.759, 774.174 411.472, 781.536 411.376 C 786.785 411.308, 791.351 410.982, 791.683 410.651 C 792.740 409.593, 790.053 407.261, 787.098 406.670 C 783.348 405.920, 776 402.718, 776 401.835 C 776 400.393, 746.474 393.765, 734.288 392.472 C 729.400 391.953, 727.946 391.406, 727.470 389.906 C 727.137 388.858, 726.194 388, 725.374 388 C 724.501 388, 724.178 388.479, 724.595 389.155 C 725.034 389.865, 724.870 390.038, 724.168 389.604 C 722.971 388.864, 685.110 387.490, 676.501 387.874 C 673.378 388.014, 671.877 387.748, 672.501 387.167 C 673.554 386.186, 693.260 382.030, 697.198 381.958 C 698.464 381.935, 701.043 381.094, 702.930 380.089 C 706.240 378.326, 706.286 378.224, 704.245 377.131 C 703.083 376.509, 700.778 376, 699.125 376 C 696.080 376, 694.211 374.606, 695.875 373.577 C 696.375 373.268, 698.406 372.900, 700.390 372.758 C 702.373 372.616, 703.997 372.162, 703.998 371.750 C 703.999 371.337, 704.337 371.074, 704.750 371.164 C 705.163 371.254, 706.625 371.022, 708 370.648 C 709.375 370.273, 714.550 369.505, 719.500 368.940 C 724.450 368.375, 729.400 367.745, 730.500 367.540 C 731.600 367.335, 733.850 367.077, 735.500 366.967 C 737.284 366.849, 737.791 366.583, 736.750 366.311 C 735.788 366.059, 735 365.410, 735 364.868 C 735 364.326, 735.450 364.160, 736 364.500 C 736.550 364.840, 737 364.731, 737 364.259 C 737 362.535, 734.527 360.997, 731.550 360.868 C 728.519 360.738, 728.522 360.733, 732 360.109 C 733.925 359.764, 735.650 359.824, 735.833 360.241 C 736.401 361.533, 738.757 361.077, 739.338 359.562 C 739.691 358.643, 739.098 357.953, 737.695 357.647 C 735.767 357.228, 735.804 357.178, 738 357.234 C 740.883 357.307, 742.599 356.738, 749.514 353.412 C 752.272 352.085, 755.235 351, 756.098 351 C 758.876 351, 758.961 349.837, 756.454 346.147 C 755.104 344.161, 754 342.013, 754 341.375 C 754 340.252, 756.795 338.542, 758.179 338.818 C 758.553 338.892, 758.696 337.726, 758.498 336.226 C 758.300 334.727, 758.107 333.163, 758.069 332.750 C 758.031 332.337, 756.682 332, 755.071 332 C 753.461 332, 751.468 331.325, 750.643 330.500 C 749.818 329.675, 748.854 329, 748.500 329 C 748.146 329, 747.218 328.361, 746.438 327.580 C 745.348 326.491, 745.306 326.044, 746.259 325.659 C 747.146 325.301, 747.100 325.135, 746.095 325.079 C 745.010 325.018, 745.102 324.545, 746.500 323 C 747.495 321.900, 748.846 321, 749.502 321 C 750.551 321, 751.935 320.044, 756.708 316.019 C 757.372 315.458, 759.027 315, 760.386 315 C 763.185 315, 766.341 312.360, 765.387 310.817 C 765.040 310.256, 763.289 309.183, 761.496 308.434 C 758.097 307.014, 756.933 303.957, 757.432 297.757 C 757.711 294.289, 758.582 293.408, 760.315 294.846 C 762.394 296.572, 768.437 287.943, 766.712 285.710 C 766.045 284.847, 764.410 283.997, 763.078 283.821 C 759.716 283.375, 759.446 281.574, 762.530 280.168 C 764.075 279.464, 764.827 278.529, 764.402 277.841 C 763.990 277.175, 764.129 276.962, 764.732 277.334 C 765.305 277.688, 766.325 277.313, 767 276.500 C 767.675 275.687, 768.595 275.249, 769.044 275.527 C 769.494 275.805, 770.144 275.575, 770.490 275.016 C 770.835 274.457, 770.754 273.969, 770.309 273.931 C 769.864 273.893, 768.150 273.675, 766.500 273.446 C 764.850 273.217, 758.257 272.627, 751.849 272.135 C 745.441 271.643, 739.591 270.860, 738.849 270.395 C 738.107 269.930, 736.712 269.679, 735.750 269.838 C 734.788 269.996, 734 269.647, 734 269.063 C 734 268.478, 732.987 267.964, 731.750 267.921 C 730.513 267.877, 732.423 267.207, 735.996 266.433 C 745.383 264.399, 745.425 264.372, 743.146 261.926 C 741.730 260.407, 739.509 259.675, 735.095 259.275 C 728.882 258.712, 726.553 257, 732 257 C 733.650 257, 735.287 257.038, 735.638 257.085 C 735.989 257.132, 736.615 256.622, 737.030 255.952 C 737.491 255.206, 741.015 254.589, 746.125 254.360 C 755.905 253.922, 758.964 253.224, 756.882 251.906 C 755.786 251.212, 755.862 251.027, 757.250 251.015 C 758.212 251.007, 759 250.550, 759 250 C 759 249.450, 758.325 249, 757.500 249 C 756.675 249, 756 248.550, 756 248 C 756 247.450, 754.987 246.997, 753.750 246.994 C 752.513 246.990, 750.150 246.256, 748.500 245.362 C 746.240 244.138, 743.071 243.775, 735.655 243.889 C 730.241 243.973, 722.204 243.357, 717.795 242.521 C 713.386 241.684, 707.466 240.993, 704.640 240.985 C 701.813 240.976, 698.825 240.518, 698 239.966 C 696.705 239.099, 696.774 238.753, 698.500 237.433 C 699.600 236.592, 701.288 236.109, 702.250 236.358 C 704.203 236.865, 704.538 235.938, 702.968 234.368 C 702.259 233.659, 702.806 232.449, 704.718 230.498 C 706.991 228.179, 707.134 227.782, 705.500 228.332 C 703.530 228.995, 703.529 228.982, 705.442 227.502 C 707.210 226.133, 706.760 226.045, 700.442 226.522 C 696.624 226.810, 692.720 227.288, 691.767 227.585 C 690.813 227.881, 687.438 227.490, 684.267 226.715 C 681.095 225.940, 675.125 225.393, 671 225.499 C 666.875 225.606, 662.375 225.357, 661 224.946 L 658.500 224.199 661.250 224.100 C 662.925 224.039, 664 223.439, 664 222.566 C 664 221.778, 662.763 220.909, 661.250 220.636 C 659.737 220.363, 661.329 220.292, 664.787 220.478 C 668.245 220.665, 671.620 221.255, 672.287 221.790 C 672.954 222.325, 676.425 223.041, 680 223.381 C 683.575 223.721, 687.175 224.068, 688 224.151 C 688.825 224.234, 689.872 224.797, 690.326 225.401 C 690.862 226.114, 691.013 225.988, 690.756 225.040 C 690.538 224.237, 691.622 222.347, 693.164 220.839 C 694.845 219.197, 695.550 217.840, 694.924 217.453 C 694.349 217.098, 690.419 216.595, 686.189 216.337 C 681.960 216.078, 675.450 215.481, 671.721 215.011 C 667.735 214.508, 663.619 214.536, 661.728 215.078 C 659.960 215.585, 657.098 216, 655.367 216 C 653.637 216, 651.159 216.867, 649.861 217.926 C 647.562 219.801, 647.552 219.872, 649.500 220.620 C 650.600 221.042, 652.095 221.976, 652.821 222.694 C 654.406 224.261, 654.880 224.198, 639 224.509 C 626.974 224.745, 624 224.444, 624 222.994 C 624 222.098, 628.861 221.196, 637.313 220.523 C 639.960 220.313, 642.829 219.557, 643.688 218.844 C 645.065 217.701, 644.908 217.400, 642.376 216.318 C 640.794 215.643, 638.487 215.070, 637.250 215.045 C 636.013 215.020, 635 214.550, 635 214 C 635 213.450, 633.875 213, 632.500 213 C 631.125 213, 630 213.358, 630 213.796 C 630 215.206, 622.999 215.161, 622.456 213.747 C 621.911 212.327, 613.176 212.197, 605.250 213.492 C 602.754 213.900, 601 213.796, 601 213.240 C 601 211.944, 613.603 210.035, 618.371 210.608 C 621.541 210.989, 622.136 210.798, 621.657 209.549 C 621.335 208.710, 621.393 208.072, 621.786 208.130 C 623.796 208.430, 628.328 207.773, 627.250 207.338 C 626.563 207.060, 626 206.196, 626 205.417 C 626 204.002, 620.892 203.785, 608 204.652 M 589 213.617 C 588.175 213.732, 583.538 214.365, 578.695 215.024 C 573.852 215.684, 570.074 216.407, 570.299 216.632 C 570.970 217.303, 595.335 214.901, 597.500 213.950 C 598.983 213.298, 598.337 213.115, 595 213.240 C 592.525 213.333, 589.825 213.503, 589 213.617 M 762.987 249.833 C 762.444 250.017, 762 250.772, 762 251.511 C 762 252.545, 763.326 252.728, 767.750 252.301 C 770.913 251.996, 773.883 251.398, 774.352 250.972 C 775.188 250.210, 764.916 249.181, 762.987 249.833 M 455.400 291.765 C 451.350 294.469, 449.298 312.594, 450.938 331.153 C 451.854 341.506, 451.824 344.523, 450.790 346.396 C 445.513 355.949, 443.414 360.365, 440.417 368.218 C 438.535 373.149, 435.366 380.096, 433.375 383.657 C 430.387 388.999, 429.847 390.822, 430.284 394.081 C 431.556 403.564, 438.965 412.905, 452.067 421.544 C 462.205 428.229, 466.577 432.465, 467.618 436.614 C 468.922 441.810, 467.248 450.762, 462.590 463.500 C 455.903 481.789, 453.166 492.675, 451.812 506.381 C 450.158 523.111, 451.407 530.551, 459.562 552.555 C 471.799 585.571, 474.394 599.324, 474.457 631.500 C 474.509 657.865, 473.613 662.137, 466.440 669.720 C 461.224 675.235, 460.111 678.338, 462.096 681.834 C 467.303 691.003, 485.087 691.360, 492.908 682.452 C 497.061 677.721, 499.261 669.837, 505.011 639.072 C 507.742 624.458, 510.914 609.125, 512.059 605 C 514.537 596.077, 520.388 583.267, 525.511 575.549 C 530.741 567.670, 542.229 555.652, 549.466 550.487 C 555.398 546.254, 561 543.414, 561 544.640 C 561 544.964, 557.430 549.002, 553.066 553.612 C 533.554 574.225, 524 596.004, 524 619.870 C 524 642.321, 531.167 657.936, 546.025 667.858 L 552.228 672 547.163 672 C 539.541 672, 532.808 673.763, 526.877 677.310 C 520.150 681.334, 518.342 685.239, 521.881 688.105 C 524.026 689.842, 526.115 689.999, 546.861 689.984 C 571.640 689.967, 589.138 688.832, 600.204 686.525 C 604.143 685.703, 607.538 685.205, 607.750 685.417 C 607.962 685.629, 605.293 687.819, 601.818 690.283 C 578.766 706.633, 549.940 713.346, 512.911 710.989 C 477.929 708.761, 457.041 697.945, 441.477 674 C 433.938 662.402, 430.920 659.325, 425.707 657.921 C 418.612 656.011, 408.919 659.050, 403.909 664.757 C 400.965 668.110, 400.813 668.680, 401.172 675.031 C 401.972 689.198, 414.587 707.345, 431 717.940 C 470.422 743.387, 539.887 750.376, 590.147 733.952 C 612.175 726.754, 627.859 717.279, 643 702.024 C 654.205 690.735, 660.328 681.713, 666.491 667.407 C 683.146 628.752, 679.688 570.348, 658.095 525.607 C 644.852 498.167, 628.996 482.443, 597.326 465.345 C 578 454.911, 569.994 444.408, 569.241 428.500 C 568.928 421.898, 569.330 419.015, 571.544 412 C 573.975 404.292, 574.302 401.356, 575.045 380.500 C 575.496 367.850, 576.557 352.100, 577.402 345.500 C 580.891 318.241, 578.226 299.904, 570.902 300.774 C 568.187 301.097, 549.792 312.838, 538.826 321.247 C 529.936 328.065, 527.773 328.831, 520.124 327.873 C 517.031 327.486, 511.396 327.131, 507.602 327.084 L 500.703 327 484.102 310.726 C 465.758 292.745, 459.814 288.818, 455.400 291.765 M 743 552.083 C 743 552.701, 746.432 553.952, 748.219 553.986 C 748.614 553.994, 748.713 553.415, 748.438 552.700 C 747.933 551.383, 743 550.824, 743 552.083 M 762.707 623.473 C 761.309 624.495, 761.326 624.722, 762.873 625.688 C 764.132 626.475, 765.391 626.415, 767.548 625.464 C 770.256 624.270, 770.309 624.156, 768.191 624.081 C 766.921 624.037, 766.114 623.625, 766.397 623.167 C 767.158 621.935, 764.509 622.155, 762.707 623.473 M 763.648 637.515 C 762.632 638.259, 762.063 639.293, 762.384 639.813 C 763.191 641.119, 767 642.021, 767 640.906 C 767 640.408, 767.405 640.112, 767.900 640.250 C 768.395 640.388, 768.845 640.163, 768.900 639.750 C 769.217 637.374, 768.830 637.027, 767.429 638.429 C 766.564 639.293, 765.439 640, 764.929 640 C 763.554 640, 763.802 638.237, 765.250 637.720 C 765.938 637.475, 766.274 637.024, 765.998 636.719 C 765.723 636.413, 764.665 636.772, 763.648 637.515 M 253 648.544 C 253 650.845, 255.490 651.968, 258.560 651.050 L 261.500 650.172 258.281 650.086 C 256.032 650.026, 255.217 649.598, 255.574 648.667 C 255.865 647.911, 255.418 647.333, 254.543 647.333 C 253.694 647.333, 253 647.878, 253 648.544 M 251.512 656.750 C 251.911 657.712, 252.260 659.063, 252.286 659.750 C 252.341 661.196, 252.333 661.193, 254.418 660.393 C 256.584 659.562, 256.430 657.929, 254.250 658.607 C 252.615 659.115, 252.616 659.077, 254.271 658.014 C 256.419 656.635, 255.640 655, 252.834 655 C 251.274 655, 250.959 655.417, 251.512 656.750 M 242.382 672.552 C 242.709 673.406, 242.563 673.848, 242.058 673.536 C 241.552 673.223, 240.851 673.432, 240.500 674 C 240.149 674.568, 239.373 674.731, 238.776 674.362 C 238.133 673.964, 237.978 674.156, 238.396 674.832 C 238.784 675.459, 240.091 675.787, 241.300 675.560 C 242.510 675.334, 244.078 675.115, 244.785 675.074 C 245.759 675.018, 245.811 674.515, 245 673 C 243.746 670.657, 241.508 670.274, 242.382 672.552 M 740.502 687.996 C 739.840 689.069, 738.949 693, 739.369 693 C 739.509 693, 740.622 691.650, 741.842 690 C 743.544 687.698, 743.717 687, 742.589 687 C 741.780 687, 740.841 687.448, 740.502 687.996 M 747.500 691.068 C 745.761 691.756, 745.859 691.869, 748.250 691.930 C 749.997 691.974, 751 692.547, 751 693.500 C 751 694.325, 751.408 695, 751.906 695 C 753.165 695, 752.065 691.236, 750.651 690.708 C 750.018 690.471, 748.600 690.633, 747.500 691.068 M 257.128 713.692 C 258.060 714.842, 258.099 715.143, 257.250 714.633 C 256.535 714.204, 256 714.381, 256 715.048 C 256 715.700, 256.697 715.947, 257.582 715.607 C 258.452 715.273, 259.577 715, 260.082 715 C 260.587 715, 261 714.523, 261 713.941 C 261 713.359, 260.550 713.160, 260 713.500 C 259.450 713.840, 259 713.641, 259 713.059 C 259 712.477, 258.270 712, 257.378 712 C 255.979 712, 255.945 712.234, 257.128 713.692 M 733.138 720.671 C 731.958 721.957, 732.148 722.111, 734.561 721.827 C 736.093 721.647, 737.498 721.034, 737.685 720.464 C 738.213 718.850, 734.660 719.012, 733.138 720.671 M 315 744 C 315 744.550, 316.377 745, 318.059 745 C 319.844 745, 320.861 744.583, 320.500 744 C 320.160 743.450, 318.784 743, 317.441 743 C 316.098 743, 315 743.450, 315 744 M 727.667 745.667 C 725.285 748.048, 728.585 748.781, 731.559 746.532 C 733.428 745.118, 733.404 745.062, 730.917 745.032 C 729.496 745.014, 728.033 745.300, 727.667 745.667 M 322.341 768.675 C 322.712 769.046, 321.775 770.168, 320.258 771.168 C 318.741 772.168, 318.036 772.990, 318.691 772.993 C 319.346 772.997, 320.174 772.528, 320.530 771.951 C 320.966 771.246, 321.703 771.328, 322.781 772.201 C 323.807 773.032, 324.129 773.075, 323.676 772.319 C 323.286 771.670, 323.432 770.851, 324 770.500 C 325.220 769.746, 324.364 768, 322.774 768 C 322.165 768, 321.970 768.304, 322.341 768.675 M 331.484 768.908 C 332.125 769.996, 331.811 770.184, 330.099 769.736 C 328.691 769.368, 328.023 769.569, 328.262 770.287 C 328.801 771.902, 336 772.473, 336 770.901 C 336 770.222, 335.699 769.968, 335.331 770.336 C 334.963 770.703, 333.761 770.216, 332.659 769.252 C 331.472 768.213, 330.993 768.073, 331.484 768.908 M 329.001 773.821 C 328.999 774.708, 332.024 776.998, 333.179 776.985 C 334.166 776.973, 334.121 776.698, 333 775.898 C 331.795 775.037, 331.942 774.923, 333.750 775.320 C 335.097 775.615, 336 775.336, 336 774.625 C 336 773.929, 334.553 773.451, 332.501 773.469 C 330.576 773.486, 329.001 773.645, 329.001 773.821 M 352.604 780.590 C 351.785 782.725, 352.703 784, 355.059 784 C 356.247 784, 356.994 783.321, 356.985 782.250 C 356.972 780.754, 356.828 780.718, 356 782 C 355.296 783.090, 355.026 783.142, 355.015 782.191 C 355.007 781.471, 354.550 781.160, 354 781.500 C 353.450 781.840, 353 781.852, 353 781.527 C 353 781.202, 354.012 780.529, 355.250 780.031 C 357.475 779.137, 357.476 779.126, 355.357 779.063 C 354.178 779.029, 352.939 779.716, 352.604 780.590 M 376.257 799.763 C 376.352 801.028, 377.094 802.007, 377.963 802.015 C 379.202 802.028, 379.238 802.197, 378.149 802.887 C 377.189 803.495, 377.690 803.874, 379.875 804.195 C 381.568 804.443, 383.480 804.164, 384.123 803.573 C 384.987 802.781, 385.105 802.892, 384.573 804 C 384.132 804.917, 384.409 804.820, 385.286 803.750 C 386.075 802.788, 387.683 802, 388.860 802 C 391.343 802, 391.716 800.489, 389.448 799.618 C 388.434 799.229, 388.144 799.425, 388.612 800.181 C 389.104 800.977, 388.753 801.119, 387.494 800.636 C 386.485 800.249, 385.376 800.392, 385.028 800.954 C 384.327 802.089, 378.012 800.217, 376.794 798.513 C 376.406 797.970, 376.164 798.532, 376.257 799.763 M 367.754 802.169 C 368.018 803.176, 368.657 804, 369.176 804 C 369.694 804, 369.803 803.490, 369.417 802.866 C 368.931 802.079, 369.688 801.874, 371.889 802.197 C 373.983 802.504, 374.726 802.326, 374.073 801.673 C 373.529 801.129, 371.777 800.606, 370.180 800.511 C 367.818 800.370, 367.365 800.680, 367.754 802.169 M 538.250 803.716 C 539.836 803.956, 541 804.765, 541 805.625 C 541 806.499, 540.521 806.822, 539.845 806.405 C 539.130 805.962, 538.962 806.130, 539.405 806.845 C 540.089 807.953, 544 808.520, 544 807.511 C 544 805.820, 540.170 803.023, 538.028 803.150 C 535.565 803.296, 535.570 803.310, 538.250 803.716 M 532.438 806.101 C 532.054 806.722, 530.519 806.954, 528.917 806.633 C 527.356 806.321, 525.812 806.496, 525.487 807.021 C 525.162 807.547, 525.562 807.722, 526.375 807.410 C 527.395 807.018, 527.766 807.410, 527.571 808.671 C 527.415 809.677, 527.480 809.938, 527.717 809.250 C 527.983 808.475, 530.040 808, 533.132 808 C 535.874 808, 537.866 807.592, 537.558 807.094 C 537.250 806.596, 536.028 806.441, 534.843 806.751 C 533.366 807.138, 532.913 806.951, 533.403 806.158 C 533.796 805.521, 533.893 805, 533.618 805 C 533.343 805, 532.812 805.495, 532.438 806.101 M 416.462 806.939 C 416.781 807.455, 416.308 808.288, 415.412 808.790 C 413.919 809.625, 413.917 809.754, 415.391 810.320 C 416.276 810.659, 417 810.532, 417 810.036 C 417 809.540, 417.959 808.830, 419.132 808.458 C 420.807 807.926, 420.968 807.594, 419.882 806.906 C 418.038 805.738, 415.734 805.760, 416.462 806.939 M 365.691 808.722 C 362.019 809.274, 362.798 811.542, 366.598 811.363 C 374.064 811.011, 380.102 810.227, 380.768 809.524 C 381.171 809.099, 380.525 809.051, 379.334 809.416 C 378.143 809.782, 376.879 809.613, 376.525 809.041 C 375.895 808.020, 371.264 807.884, 365.691 808.722 M 378.637 812.200 C 376.489 812.982, 376.114 813.458, 377.137 814.106 C 379.103 815.352, 380.785 815.172, 379 813.906 C 377.815 813.066, 378.042 812.929, 380.083 813.251 C 381.770 813.517, 382.667 813.198, 382.667 812.329 C 382.667 810.801, 382.496 810.795, 378.637 812.200 M 467 815 C 463.975 815.371, 462.625 815.801, 464 815.955 C 465.375 816.110, 466.950 816.145, 467.500 816.034 C 468.050 815.922, 472.100 815.480, 476.500 815.052 C 483.875 814.333, 484.032 814.275, 478.500 814.299 C 475.200 814.314, 470.025 814.629, 467 815 M 410.463 816.060 C 410.132 816.595, 409.474 816.793, 409 816.500 C 408.526 816.207, 407.885 816.378, 407.575 816.879 C 407.265 817.381, 408.754 817.957, 410.884 818.160 C 413.580 818.417, 414.618 818.169, 414.301 817.342 C 413.673 815.705, 411.194 814.877, 410.463 816.060 M 433.750 817.723 C 435.538 817.945, 438.462 817.945, 440.250 817.723 C 442.038 817.502, 440.575 817.320, 437 817.320 C 433.425 817.320, 431.962 817.502, 433.750 817.723" stroke="none" fill="#c6d4e8" fill-rule="evenodd"/></svg>